<svg xmlns="http://www.w3.org/2000/svg" xmlns:xlink="http://www.w3.org/1999/xlink" contentStyleType="text/css" data-diagram-type="DESCRIPTION" height="953px" preserveAspectRatio="none" style="width:949px;height:953px;background:#FFFFFF;" version="1.1" viewBox="0 0 949 953" width="949px" zoomAndPan="magnify"><?plantuml 1.2026.6?><defs/><g><g class="title" data-source-line="2"><text fill="#000000" font-family="Verdana" font-size="22" font-weight="700" lengthAdjust="spacing" textLength="295.395" x="326.1596" y="38.5181">Orderly - Deployment View</text></g><!--cluster browser--><g class="cluster" data-qualified-name="browser" data-source-line="4" id="ent0001"><polygon fill="#FFFFFF" points="501.5017,71.9641,511.5017,61.9641,674.5017,61.9641,674.5017,175.9641,664.5017,185.9641,501.5017,185.9641,501.5017,71.9641" style="stroke:#000000;stroke-width:1;stroke-linejoin:miter;stroke-miterlimit:10;"/><line style="stroke:#000000;stroke-width:1;" x1="664.5017" x2="674.5017" y1="71.9641" y2="61.9641"/><line style="stroke:#000000;stroke-width:1;" x1="501.5017" x2="664.5017" y1="71.9641" y2="71.9641"/><line style="stroke:#000000;stroke-width:1;" x1="664.5017" x2="664.5017" y1="71.9641" y2="185.9641"/><text fill="#000000" font-family="Verdana" font-size="14" font-weight="700" lengthAdjust="spacing" textLength="93.8136" x="537.0949" y="89.93">User Browser</text></g><!--cluster vercel--><g class="cluster" data-qualified-name="vercel" data-source-line="8" id="ent0003"><path d="M381.0144,255.074 C386.8476,243.4453 394.8706,244.1055 402.4125,253.3199 C404.6079,245.1237 411.9502,242.7679 417.6075,249.8845 C423.3332,239.9868 431.6918,239.1454 438.0495,249.2383 C443.7082,240.9392 450.9036,240.9323 456.8544,248.9007 C461.4149,238.5394 469.3196,238.1924 475.6305,247.2041 C479.6628,236.3197 486.399,237.2644 493.8691,243.553 C497.8085,235.7919 505.9602,236.0714 510.5427,242.8138 C517.3509,234.9799 523.3217,232.8074 529.8666,243.0947 C536.6446,236.1096 542.8113,237.973 546.4354,246.4701 C553.4104,236.5692 561.2481,239.0048 566.1194,248.5946 C573.2283,241.4595 579.7011,239.8414 584.6932,250.7711 C591.5234,240.1463 597.9955,240.9063 604.6281,250.9615 C612.208,241.6302 617.953,243.5329 623.5469,252.964 C633.1585,246.2152 642.23,246.8286 645.5017,259.9641 C647.1374,258.7626 648.8645,259.5393 648.9907,261.5857 C658.2423,267.6965 656.9996,276.4236 647.5149,281.1188 C658.3254,287.4932 658.5733,293.9831 648.2419,301.1258 C655.1962,305.6217 654.8929,312.655 648.3574,317.2476 C657.1523,322.8058 659.0522,329.2918 650.6456,336.8572 C660.7477,342.4318 657.8079,351.5466 649.7156,356.2487 C658.7855,359.3316 661.6842,367.7674 653.0358,374.1387 C661.9226,382.5557 658.5471,388.1276 649.6554,393.4291 C657.9139,398.6782 660.1519,407.3411 649.8694,412.795 C658.029,417.9755 658.1865,425.6726 648.8633,429.8199 C658.5427,436.3293 659.8572,443.3617 650.1169,451.0194 C657.2978,457.2286 655.8909,462.7277 648.4703,467.4758 C657.9997,478.5552 651.6768,490.5833 638.5017,492.6841 C640.5693,492.1306 641.847,493.3135 641.3421,495.4255 C634.6289,505.5669 627.4438,505.1145 621.7343,494.4783 C616.9365,504.0522 610.033,503.7707 603.2972,496.6139 C596.7785,505.6921 590.4455,505.2448 583.6683,496.9051 C576.9058,505.3169 569.5545,504.9428 565.0568,494.6514 C562.0483,501.7967 554.2046,503.0116 549.174,497.1138 C544.3014,504.789 535.1881,507.3728 530.1968,497.2402 C524.5724,507.6355 518.6384,507.6152 510.9606,499.3579 C504.6313,506.9316 497.5241,506.4618 493.2472,497.1987 C486.5773,505.2097 480.4475,504.3228 475.4315,495.4532 C469.6316,505.0844 461.7974,506.3342 455.1448,496.3343 C449.3721,505.4956 443.8657,505.4689 437.7003,496.7166 C431.7027,503.8392 424.4897,504.9278 419.3502,495.7507 C413.3269,506.1634 405.7731,507.1876 398.9387,496.5368 C386.2571,507.5194 374.4355,502.2366 373.5017,485.6841 C375.491,484.7287 376.377,485.5002 376.6456,487.5091 C368.0685,483.6281 367.6264,474.6069 374.8104,469.1503 C365.1916,464.6643 363.3331,458.9662 371.5757,451.2521 C361.2332,443.6614 360.2287,435.9714 372.5519,429.3929 C364.9967,425.2874 364.0958,417.0033 371.1453,411.7345 C360.3741,408.9785 359.23,400.1761 367.3866,393.5152 C359.7988,388.2931 358.3421,379.8216 367.9436,375.12 C358.5905,368.4601 359.2888,361.5494 369.6833,356.7607 C360.9714,351.4393 358.9577,342.1687 369.5484,336.7173 C361.1581,329.1288 363.0724,322.3526 372.4593,317.4499 C364.3836,310.1487 365.5807,303.4605 374.1703,297.5954 C367.5607,292.743 366.6668,284.2189 375.4415,280.5113 C365.4684,268.9687 365.4669,259.913 380.5017,252.9641 C381.7539,253.3974 381.9367,254.1123 381.0144,255.074" fill="#FFFFFF" style="stroke:#000000;stroke-width:1;"/><text fill="#000000" font-family="Verdana" font-size="14" font-weight="700" lengthAdjust="spacing" textLength="43.4698" x="487.7667" y="272.93">Vercel</text></g><!--cluster cdn--><g class="cluster" data-qualified-name="vercel.cdn" data-source-line="9" id="ent0004"><polygon fill="#FFFFFF" points="397.5017,308.9641,407.5017,298.9641,621.5017,298.9641,621.5017,458.6841,611.5017,468.6841,397.5017,468.6841,397.5017,308.9641" style="stroke:#000000;stroke-width:1;stroke-linejoin:miter;stroke-miterlimit:10;"/><line style="stroke:#000000;stroke-width:1;" x1="611.5017" x2="621.5017" y1="308.9641" y2="298.9641"/><line style="stroke:#000000;stroke-width:1;" x1="397.5017" x2="611.5017" y1="308.9641" y2="308.9641"/><line style="stroke:#000000;stroke-width:1;" x1="611.5017" x2="611.5017" y1="308.9641" y2="468.6841"/><text fill="#000000" font-family="Verdana" font-size="14" font-weight="700" lengthAdjust="spacing" textLength="142.6174" x="434.1929" y="326.93">CDN / Edge Network</text></g><!--cluster render--><g class="cluster" data-qualified-name="render" data-source-line="14" id="ent0006"><path d="M54.6921,565.2375 C69.1216,538.902 93.5735,540.1375 105.8112,567.3305 C116.3077,541.6153 135.4776,536.9818 154.3613,558.7559 C170.6476,538.254 186.0737,532.5708 202.7706,558.3261 C216.1943,536.1999 234.0624,538.3611 246.4715,559.3543 C260.8318,535.3351 283.1999,527.3882 300.8397,555.9642 C316.5515,534.0196 335.5643,531.5668 348.9996,558.2203 C366.6139,536.7394 381.875,538.1392 399.3292,558.4132 C415.0533,533.2671 432.2338,533.0313 447.757,558.605 C465.5279,537.3152 485.7363,534.9848 499.6058,562.7302 C516.1947,535.6983 537.4038,542.9707 551.8225,565.0382 C564.9542,537.9783 584.1081,540.5736 600.379,561.8872 C610.9049,540.362 628.6883,539.8314 642.8093,558.0491 C659.6468,532.8336 683.0094,534.4192 697.259,560.7812 C716.476,540.9746 734.7695,538.8767 748.5017,566.6841 C753.7373,564.9442 757.113,568.4809 755.9186,573.6185 C779.1735,589.9868 784.7918,607.6614 758.0381,626.0512 C785.6786,638.9288 789.3349,666.3171 760.9093,682.0684 C786.9426,699.7493 778.1986,720.229 755.506,732.7111 C783.7128,748.9774 785.7797,768.8178 760.0638,789.4181 C781.0419,807.4617 775.8949,825.2991 753.4017,837.2934 C782.3418,860.3454 776.3933,887.2101 741.5017,897.6841 C743.6763,898.3753 743.9155,900.1086 742.5698,901.7293 C729.3267,930.3692 711.2886,928.3261 693.1877,906.4811 C677.8938,931.1496 658.5598,924.4314 645.0319,904.5713 C631.477,930.2738 610.1882,931.0883 594.7699,906.4312 C580.7555,928.0138 563.0306,926.4655 550.2214,905.1789 C536.6077,930.5297 518.6174,933.7811 500.8142,909.3357 C484.1899,932.3808 459.7979,936.0147 444.302,908.0848 C432.8732,932.8253 413.6262,936.5814 397.741,912.3191 C382.5109,938.972 363.0667,934.888 348.7426,911.4332 C331.8912,934.8536 316.5679,932.322 303.5807,907.7935 C283.942,930.6557 267.8423,927.1373 253.963,901.8576 C241.0907,924.817 215.6559,926.7966 200.166,905.0042 C185.3301,926.4613 168.5611,924.7117 154.3242,904.3476 C138.3967,932.1314 119.6946,931.7503 103.3378,904.7471 C79.9568,926.9376 51.8759,922.142 40.5017,890.6841 C42.1971,890.5712 42.8959,891.5893 42.3075,893.1494 C20.0861,877.6549 17.3358,854.7283 41.433,838.4927 C18.2287,821.6157 19.3012,799.9974 43.607,785.0532 C19.8094,770.7886 20.0623,750.3756 41.1727,733.9709 C15.2004,714.2985 11,693.7792 42.4437,675.3516 C20.3714,658.0578 21.8286,639.4883 43.9472,623.4752 C16.2756,600.5428 14.0573,579.2111 47.5017,559.6841 C52.0998,557.8183 55.3873,560.2496 54.6921,565.2375" fill="#FFFFFF" style="stroke:#000000;stroke-width:1;"/><text fill="#000000" font-family="Verdana" font-size="14" font-weight="700" lengthAdjust="spacing" textLength="50.2038" x="369.3998" y="579.65">Render</text></g><!--cluster recommender_node--><g class="cluster" data-qualified-name="render.recommender_node" data-source-line="15" id="ent0007"><polygon fill="#FFFFFF" points="56.5017,607.6841,66.5017,597.6841,417.5017,597.6841,417.5017,695.6841,407.5017,705.6841,56.5017,705.6841,56.5017,607.6841" style="stroke:#000000;stroke-width:1;stroke-linejoin:miter;stroke-miterlimit:10;"/><line style="stroke:#000000;stroke-width:1;" x1="407.5017" x2="417.5017" y1="607.6841" y2="597.6841"/><line style="stroke:#000000;stroke-width:1;" x1="56.5017" x2="407.5017" y1="607.6841" y2="607.6841"/><line style="stroke:#000000;stroke-width:1;" x1="407.5017" x2="407.5017" y1="607.6841" y2="705.6841"/><text fill="#000000" font-family="Verdana" font-size="14" font-weight="700" lengthAdjust="spacing" textLength="149.0714" x="158.466" y="625.65">Web Service: team-24</text></g><!--cluster ocr_node--><g class="cluster" data-qualified-name="render.ocr_node" data-source-line="20" id="ent0010"><polygon fill="#FFFFFF" points="441.5017,607.6841,451.5017,597.6841,732.5017,597.6841,732.5017,695.6841,722.5017,705.6841,441.5017,705.6841,441.5017,607.6841" style="stroke:#000000;stroke-width:1;stroke-linejoin:miter;stroke-miterlimit:10;"/><line style="stroke:#000000;stroke-width:1;" x1="722.5017" x2="732.5017" y1="607.6841" y2="597.6841"/><line style="stroke:#000000;stroke-width:1;" x1="441.5017" x2="722.5017" y1="607.6841" y2="607.6841"/><line style="stroke:#000000;stroke-width:1;" x1="722.5017" x2="722.5017" y1="607.6841" y2="705.6841"/><text fill="#000000" font-family="Verdana" font-size="14" font-weight="700" lengthAdjust="spacing" textLength="161.5874" x="502.208" y="625.65">Web Service: team-24-1</text></g><!--cluster pg_node--><g class="cluster" data-qualified-name="render.pg_node" data-source-line="25" id="ent0013"><polygon fill="#FFFFFF" points="196.5017,784.6841,206.5017,774.6841,417.5017,774.6841,417.5017,871.6841,407.5017,881.6841,196.5017,881.6841,196.5017,784.6841" style="stroke:#000000;stroke-width:1;stroke-linejoin:miter;stroke-miterlimit:10;"/><line style="stroke:#000000;stroke-width:1;" x1="407.5017" x2="417.5017" y1="784.6841" y2="774.6841"/><line style="stroke:#000000;stroke-width:1;" x1="196.5017" x2="407.5017" y1="784.6841" y2="784.6841"/><line style="stroke:#000000;stroke-width:1;" x1="407.5017" x2="407.5017" y1="784.6841" y2="881.6841"/><text fill="#000000" font-family="Verdana" font-size="14" font-weight="700" lengthAdjust="spacing" textLength="145.1935" x="230.4049" y="802.65">PostgreSQL Instance</text></g><!--cluster openai_cloud--><g class="cluster" data-qualified-name="openai_cloud" data-source-line="30" id="ent0015"><path d="M796.9762,787.1912 C800.5147,781.7721 806.4594,782.2125 809.0232,788.2188 C811.5349,782.8798 815.8377,782.4442 819.862,786.4677 C823.8081,781.3339 828.4269,780.8904 832.2647,786.5918 C835.3875,780.5371 840.0469,779.2157 844.4348,785.3262 C847.1586,780.3469 850.8989,778.9367 855.0274,783.8171 C858.4592,778.1948 863.0006,778.101 866.7218,783.5102 C870.968,777.3473 876.0159,777.4134 879.1929,784.5154 C883.0838,779.7145 887.5394,780.3958 889.9229,786.0607 C894.3242,780.4519 899.6022,780.8771 902.5123,787.5849 C911.9135,781.1912 917.8881,782.0747 920.5017,794.1841 C921.5123,794.3822 921.8142,795.1824 921.2901,796.0345 C927.3721,797.7232 927.9956,802.0899 924.6163,806.7229 C931.4494,809.765 931.3874,816.3844 926.0367,820.6675 C931.9708,822.7887 933.6508,826.7414 929.4414,831.9293 C934.7142,836.2072 933.4424,841.9493 926.9724,843.7809 C931.7352,848.7162 930.1192,854.0158 923.2362,855.1106 C930.4066,865.6741 925.4306,873.3684 913.5017,874.1841 C914.2285,873.6661 914.8378,873.8523 915.1144,874.7114 C912.0758,880.4874 908.4169,881.4252 903.8812,876.2467 C900.3183,882.8066 895.063,883.4594 890.9321,876.8032 C886.3699,881.926 882.1239,881.65 878.2576,875.9856 C876.6326,881.6733 871.8305,881.7756 868.4079,877.8221 C863.75,883.7013 858.9523,885.0845 854.5823,877.5259 C852.0092,882.8651 848.1141,882.1902 844.8887,878.2039 C840.2136,883.0705 835.8699,882.7149 832.436,876.7738 C829.2567,882.5806 823.2559,881.558 820.2143,876.6172 C815.783,881.4806 810.8603,881.4648 807.6332,875.2497 C797.5593,882.5736 790.219,879.6819 788.5017,867.1841 C789.1015,866.5782 789.7947,866.6628 789.9996,867.574 C784.0337,864.8137 782.3017,861.1917 787.3338,855.9164 C781.1627,852.4244 781.8898,847.0896 787.3586,843.6212 C781.0519,841.8497 779.1448,837.1278 784.0275,832.1165 C779.2588,827.5501 779.9636,823.2441 786.1155,820.6698 C778.9542,816.5967 780.0431,809.9702 786.9958,806.7923 C780.2934,795.7313 782.3801,789.6457 795.5017,787.1841 C795.9168,786.5318 796.5676,786.4781 796.9762,787.1912" fill="#FFFFFF" style="stroke:#000000;stroke-width:1;"/><text fill="#000000" font-family="Verdana" font-size="14" font-weight="700" lengthAdjust="spacing" textLength="118.0055" x="795.4989" y="807.15">OpenAI Platform</text></g><!--entity spa--><g class="entity" data-qualified-name="browser.spa" data-source-line="5" id="ent0002"><rect fill="#FFFFFF" height="49.0679" rx="2.5" ry="2.5" style="stroke:#000000;stroke-width:1;" width="104.9738" x="545.0017" y="112.9641"/><rect fill="#FFFFFF" height="10" style="stroke:#000000;stroke-width:1;" width="15" x="629.9754" y="117.9641"/><rect fill="#FFFFFF" height="2" style="stroke:#000000;stroke-width:1;" width="4" x="627.9754" y="119.9641"/><rect fill="#FFFFFF" height="2" style="stroke:#000000;stroke-width:1;" width="4" x="627.9754" y="123.9641"/><text fill="#000000" font-family="Verdana" font-size="14" lengthAdjust="spacing" textLength="64.9738" x="560.0017" y="147.93">React SPA</text></g><!--entity frontend--><g class="entity" data-qualified-name="vercel.cdn.frontend" data-source-line="10" id="ent0005"><rect fill="#FFFFFF" height="49.0679" rx="2.5" ry="2.5" style="stroke:#000000;stroke-width:1;" width="177.2275" x="421.0017" y="395.6841"/><rect fill="#FFFFFF" height="10" style="stroke:#000000;stroke-width:1;" width="15" x="578.2291" y="400.6841"/><rect fill="#FFFFFF" height="2" style="stroke:#000000;stroke-width:1;" width="4" x="576.2291" y="402.6841"/><rect fill="#FFFFFF" height="2" style="stroke:#000000;stroke-width:1;" width="4" x="576.2291" y="406.6841"/><text fill="#000000" font-family="Verdana" font-size="14" lengthAdjust="spacing" textLength="137.2275" x="436.0017" y="430.65">Static Frontend Build</text></g><!--entity recommender--><g class="entity" data-qualified-name="render.recommender_node.recommender" data-source-line="16" id="ent0008"><rect fill="#FFFFFF" height="49.0679" rx="2.5" ry="2.5" style="stroke:#000000;stroke-width:1;" width="189.4914" x="212.0017" y="640.6841"/><rect fill="#FFFFFF" height="10" style="stroke:#000000;stroke-width:1;" width="15" x="381.4931" y="645.6841"/><rect fill="#FFFFFF" height="2" style="stroke:#000000;stroke-width:1;" width="4" x="379.4931" y="647.6841"/><rect fill="#FFFFFF" height="2" style="stroke:#000000;stroke-width:1;" width="4" x="379.4931" y="651.6841"/><text fill="#000000" font-family="Verdana" font-size="14" lengthAdjust="spacing" textLength="149.4914" x="227.0017" y="675.65">Recommender FastAPI</text></g><!--entity ai--><g class="entity" data-qualified-name="render.recommender_node.ai" data-source-line="17" id="ent0009"><rect fill="#FFFFFF" height="49.0679" rx="2.5" ry="2.5" style="stroke:#000000;stroke-width:1;" width="104.0358" x="72.5017" y="640.6841"/><rect fill="#FFFFFF" height="10" style="stroke:#000000;stroke-width:1;" width="15" x="156.5374" y="645.6841"/><rect fill="#FFFFFF" height="2" style="stroke:#000000;stroke-width:1;" width="4" x="154.5374" y="647.6841"/><rect fill="#FFFFFF" height="2" style="stroke:#000000;stroke-width:1;" width="4" x="154.5374" y="651.6841"/><text fill="#000000" font-family="Verdana" font-size="14" lengthAdjust="spacing" textLength="64.0358" x="87.5017" y="675.65">AI Service</text></g><!--entity ocr--><g class="entity" data-qualified-name="render.ocr_node.ocr" data-source-line="21" id="ent0011"><rect fill="#FFFFFF" height="49.0679" rx="2.5" ry="2.5" style="stroke:#000000;stroke-width:1;" width="121.1717" x="595.0017" y="640.6841"/><rect fill="#FFFFFF" height="10" style="stroke:#000000;stroke-width:1;" width="15" x="696.1734" y="645.6841"/><rect fill="#FFFFFF" height="2" style="stroke:#000000;stroke-width:1;" width="4" x="694.1734" y="647.6841"/><rect fill="#FFFFFF" height="2" style="stroke:#000000;stroke-width:1;" width="4" x="694.1734" y="651.6841"/><text fill="#000000" font-family="Verdana" font-size="14" lengthAdjust="spacing" textLength="81.1717" x="610.0017" y="675.65">OCR FastAPI</text></g><!--entity tesseract--><g class="entity" data-qualified-name="render.ocr_node.tesseract" data-source-line="22" id="ent0012"><rect fill="#FFFFFF" height="49.0679" rx="2.5" ry="2.5" style="stroke:#000000;stroke-width:1;" width="102.3978" x="457.5017" y="640.6841"/><rect fill="#FFFFFF" height="10" style="stroke:#000000;stroke-width:1;" width="15" x="539.8994" y="645.6841"/><rect fill="#FFFFFF" height="2" style="stroke:#000000;stroke-width:1;" width="4" x="537.8994" y="647.6841"/><rect fill="#FFFFFF" height="2" style="stroke:#000000;stroke-width:1;" width="4" x="537.8994" y="651.6841"/><text fill="#000000" font-family="Verdana" font-size="14" lengthAdjust="spacing" textLength="62.3978" x="472.5017" y="675.65">Tesseract</text></g><!--entity db--><g class="entity" data-qualified-name="render.pg_node.db" data-source-line="26" id="ent0014"><path d="M261.0017,827.6841 C261.0017,817.6841 306.3655,817.6841 306.3655,817.6841 C306.3655,817.6841 351.7294,817.6841 351.7294,827.6841 L351.7294,855.752 C351.7294,865.752 306.3655,865.752 306.3655,865.752 C306.3655,865.752 261.0017,865.752 261.0017,855.752 L261.0017,827.6841" fill="#FFFFFF" style="stroke:#000000;stroke-width:1;"/><path d="M261.0017,827.6841 C261.0017,837.6841 306.3655,837.6841 306.3655,837.6841 C306.3655,837.6841 351.7294,837.6841 351.7294,827.6841" fill="none" style="stroke:#000000;stroke-width:1;"/><text fill="#000000" font-family="Verdana" font-size="14" lengthAdjust="spacing" textLength="70.7277" x="271.0017" y="856.65">orderly_db</text></g><!--entity openai--><g class="entity" data-qualified-name="openai_cloud.openai" data-source-line="31" id="ent0016"><rect fill="#FFFFFF" height="49.0679" rx="2.5" ry="2.5" style="stroke:#000000;stroke-width:1;" width="115.5857" x="796.5017" y="817.1841"/><rect fill="#FFFFFF" height="10" style="stroke:#000000;stroke-width:1;" width="15" x="892.0874" y="822.1841"/><rect fill="#FFFFFF" height="2" style="stroke:#000000;stroke-width:1;" width="4" x="890.0874" y="824.1841"/><rect fill="#FFFFFF" height="2" style="stroke:#000000;stroke-width:1;" width="4" x="890.0874" y="828.1841"/><text fill="#000000" font-family="Verdana" font-size="14" lengthAdjust="spacing" textLength="75.5857" x="811.5017" y="852.15">OpenAI API</text></g><!--link browser to cdn--><g class="link" data-entity-1="ent0001" data-entity-2="ent0004" data-link-type="dependency" data-source-line="34" id="lnk17"><path d="M509.5017,186.1196 C509.5017,186.4418 509.5017,186.7649 509.5017,187.0891 C509.5017,187.7373 509.5017,188.3894 509.5017,189.0453 C509.5017,190.357 509.5017,191.6835 509.5017,193.0236 C509.5017,195.7038 509.5017,198.438 509.5017,201.2154 C509.5017,212.3253 509.5017,224.1269 509.5017,235.9279 C509.5017,247.7288 509.5017,259.529 509.5017,270.636 C509.5017,276.1895 509.5017,281.5697 509.5017,286.6901 C509.5017,289.2502 509.5017,291.7454 509.5017,294.1648 C509.5017,295.3745 509.5017,296.5653 509.5017,297.7358 C509.5017,298.0284 509.5017,293.3197 509.5017,293.6098" fill="none" id="browser-to-cdn" style="stroke:#000000;stroke-width:1;"/><polygon fill="#000000" points="509.5017,298.6098,513.5017,289.6098,509.5017,293.6098,505.5017,289.6098,509.5017,298.6098" style="stroke:#000000;stroke-width:1;stroke-linejoin:miter;stroke-miterlimit:10;"/><text fill="#000000" font-family="Verdana" font-size="13" lengthAdjust="spacing" textLength="39.091" x="510.5017" y="224.8611">HTTPS</text></g><!--link cdn to frontend--><g class="link" data-entity-1="ent0004" data-entity-2="ent0005" data-link-type="dependency" data-source-line="35" id="lnk18"><path d="M509.5017,334.7441 C509.5017,336.3941 509.5017,365.9941 509.5017,390.3841" fill="none" id="cdn-to-frontend" style="stroke:#000000;stroke-width:1;"/><polygon fill="#000000" points="509.5017,395.3841,513.5017,386.3841,509.5017,390.3841,505.5017,386.3841,509.5017,395.3841" style="stroke:#000000;stroke-width:1;stroke-linejoin:miter;stroke-miterlimit:10;"/></g><!--link frontend to recommender--><g class="link" data-entity-1="ent0005" data-entity-2="ent0008" data-link-type="dependency" data-source-line="36" id="lnk19"><path d="M489.6717,444.9241 C450.8617,491.3841 368.4977,589.9773 329.6177,636.5073" fill="none" id="frontend-to-recommender" style="stroke:#000000;stroke-width:1;stroke-dasharray:7,7;"/><polygon fill="#000000" points="326.4117,640.3441,335.252,636.0026,329.6177,636.5073,329.113,630.873,326.4117,640.3441" style="stroke:#000000;stroke-width:1;stroke-linejoin:miter;stroke-miterlimit:10;"/><text fill="#000000" font-family="Verdana" font-size="13" lengthAdjust="spacing" textLength="72.1501" x="426.5017" y="531.5811">HTTPS REST</text></g><!--link frontend to ocr--><g class="link" data-entity-1="ent0005" data-entity-2="ent0011" data-link-type="dependency" data-source-line="37" id="lnk20"><path d="M523.7617,444.9241 C551.6817,491.3841 610.6463,589.5283 638.6063,636.0583" fill="none" id="frontend-to-ocr" style="stroke:#000000;stroke-width:1;stroke-dasharray:7,7;"/><polygon fill="#000000" points="641.1817,640.3441,639.9747,630.5695,638.6063,636.0583,633.1175,634.69,641.1817,640.3441" style="stroke:#000000;stroke-width:1;stroke-linejoin:miter;stroke-miterlimit:10;"/><text fill="#000000" font-family="Verdana" font-size="13" lengthAdjust="spacing" textLength="72.1501" x="578.5017" y="531.5811">HTTPS REST</text></g><!--link recommender to db--><g class="link" data-entity-1="ent0008" data-entity-2="ent0014" data-link-type="dependency" data-source-line="38" id="lnk21"><path d="M306.5017,689.7141 C306.5017,723.2041 306.5017,779.2341 306.5017,812.5241" fill="none" id="recommender-to-db" style="stroke:#000000;stroke-width:1;"/><polygon fill="#000000" points="306.5017,817.5241,310.5017,808.5241,306.5017,812.5241,302.5017,808.5241,306.5017,817.5241" style="stroke:#000000;stroke-width:1;stroke-linejoin:miter;stroke-miterlimit:10;"/><text fill="#000000" font-family="Verdana" font-size="13" lengthAdjust="spacing" textLength="81.9521" x="344.3892" y="736.5811">TCP (internal)</text><text fill="#000000" font-family="Verdana" font-size="13" lengthAdjust="spacing" textLength="155.7271" x="307.5017" y="754.2871">PostgreSQL wire protocol</text></g><!--link recommender to openai--><g class="link" data-entity-1="ent0008" data-entity-2="ent0016" data-link-type="dependency" data-source-line="39" id="lnk22"><path d="M370.3717,689.8041 C392.7417,697.7641 418.1217,706.4641 441.5017,713.6841 C454.6917,717.7541 458.2417,717.8541 471.5017,721.6841 C587.2417,755.0841 716.7026,796.1507 791.5626,820.2707" fill="none" id="recommender-to-openai" style="stroke:#000000;stroke-width:1;"/><polygon fill="#000000" points="796.3217,821.8041,788.982,815.2368,791.5626,820.2707,786.5286,822.8513,796.3217,821.8041" style="stroke:#000000;stroke-width:1;stroke-linejoin:miter;stroke-miterlimit:10;"/><text fill="#000000" font-family="Verdana" font-size="13" lengthAdjust="spacing" textLength="39.091" x="588.5017" y="745.5811">HTTPS</text></g><?plantuml-src VPD1Rzim38Nl_XLSJjl1AJRib4E194sn04FZsLvw6H384fC9aoL3PXi4G__xPDfERHVhAGprFRqdKVv0lx54g8pGDY9D1c7d5NfpWHZki3BkKg8bs6iyHv5r2c7siqOFA-_EuNS6eeQYhU5l121TMJdRI6Of2acG9Kk6waf4Br4aZNjICDkZbsXuuPbB5hVxh-yUu0OsweJmW7Hs_WzpKbc6HXuP2T8IxhspX5R1waaRnVYnQmN5oy0u3QqkjkToOFo81MJedxN41H2AClxojIE3PSduWT4tET9N0kv5JSjaErLE9SjjRyQaq9pqtJ3nPqQT_5-CtJeTsGToYkHOXrc5oJ10_R-nUU9gEddCVdo7hQr9s2vaTHeQAq6Y47NWNVjc3gfWJ1MJMzzLQCDv4oFew7pPPWizeGyjCNaw7Nyz1gFDVlrJY-DRVX0B-9RdIHOrTTExJhqlO3w_7KwXLq2woV8n5Ivhl3gKDPkh8gpdwmG-wg3oLfXFl-pWgixQXq_9EtBIcJVgzX3NnFy0?></g></svg>