<svg xmlns="http://www.w3.org/2000/svg" xmlns:xlink="http://www.w3.org/1999/xlink" contentStyleType="text/css" data-diagram-type="DESCRIPTION" height="795px" preserveAspectRatio="none" style="width:852px;height:795px;background:#FFFFFF;" version="1.1" viewBox="0 0 852 795" width="852px" zoomAndPan="magnify"><?plantuml 1.2026.6?><defs/><g><g class="title" data-source-line="2"><text fill="#000000" font-family="Verdana" font-size="22" font-weight="700" lengthAdjust="spacing" textLength="331.2111" x="259.3945" y="38.5181">Orderly - Component Diagram</text></g><!--cluster Frontend (Vercel)--><g class="cluster" data-qualified-name="Frontend .Vercel." data-source-line="6" id="ent0002"><path d="M462.5,205.9641 L584.4176,205.9641 A3.75,3.75 0 0 1 586.9176,208.4641 L593.9176,231.032 L595.5,231.032 A2.5,2.5 0 0 1 598,233.532 L598,306.4641 A2.5,2.5 0 0 1 595.5,308.9641 L462.5,308.9641 A2.5,2.5 0 0 1 460,306.4641 L460,208.4641 A2.5,2.5 0 0 1 462.5,205.9641" fill="#FFFFFF" style="stroke:#000000;stroke-width:1;"/><line style="stroke:#000000;stroke-width:1;" x1="460" x2="593.9176" y1="231.032" y2="231.032"/><text fill="#000000" font-family="Verdana" font-size="14" font-weight="700" lengthAdjust="spacing" textLength="120.9176" x="464" y="222.93">Frontend (Vercel)</text></g><!--cluster Recommender Service (Render)--><g class="cluster" data-qualified-name="Recommender Service .Render." data-source-line="10" id="ent0004"><path d="M13.5,395.9641 L233.3612,395.9641 A3.75,3.75 0 0 1 235.8612,398.4641 L242.8612,421.032 L491.5,421.032 A2.5,2.5 0 0 1 494,423.532 L494,624.4641 A2.5,2.5 0 0 1 491.5,626.9641 L13.5,626.9641 A2.5,2.5 0 0 1 11,624.4641 L11,398.4641 A2.5,2.5 0 0 1 13.5,395.9641" fill="#FFFFFF" style="stroke:#000000;stroke-width:1;"/><line style="stroke:#000000;stroke-width:1;" x1="11" x2="242.8612" y1="421.032" y2="421.032"/><text fill="#000000" font-family="Verdana" font-size="14" font-weight="700" lengthAdjust="spacing" textLength="218.8612" x="15" y="412.93">Recommender Service (Render)</text></g><!--cluster OCR Service (Render)--><g class="cluster" data-qualified-name="OCR Service .Render." data-source-line="19" id="ent0011"><path d="M671.5,395.9641 L818.8275,395.9641 A3.75,3.75 0 0 1 821.3275,398.4641 L828.3275,421.032 L834.5,421.032 A2.5,2.5 0 0 1 837,423.532 L837,778.4641 A2.5,2.5 0 0 1 834.5,780.9641 L671.5,780.9641 A2.5,2.5 0 0 1 669,778.4641 L669,398.4641 A2.5,2.5 0 0 1 671.5,395.9641" fill="#FFFFFF" style="stroke:#000000;stroke-width:1;"/><line style="stroke:#000000;stroke-width:1;" x1="669" x2="828.3275" y1="421.032" y2="421.032"/><text fill="#000000" font-family="Verdana" font-size="14" font-weight="700" lengthAdjust="spacing" textLength="146.3275" x="673" y="412.93">OCR Service (Render)</text></g><!--cluster Infrastructure--><g class="cluster" data-qualified-name="Infrastructure" data-source-line="25" id="ent0015"><path d="M294.5,677.9641 L396.0616,677.9641 A3.75,3.75 0 0 1 398.5616,680.4641 L405.5616,703.032 L630.5,703.032 A2.5,2.5 0 0 1 633,705.532 L633,778.4641 A2.5,2.5 0 0 1 630.5,780.9641 L294.5,780.9641 A2.5,2.5 0 0 1 292,778.4641 L292,680.4641 A2.5,2.5 0 0 1 294.5,677.9641" fill="#FFFFFF" style="stroke:#000000;stroke-width:1;"/><line style="stroke:#000000;stroke-width:1;" x1="292" x2="405.5616" y1="703.032" y2="703.032"/><text fill="#000000" font-family="Verdana" font-size="14" font-weight="700" lengthAdjust="spacing" textLength="100.5616" x="296" y="694.93">Infrastructure</text></g><!--entity frontend--><g class="entity" data-qualified-name="Frontend .Vercel..frontend" data-source-line="7" id="ent0003"><rect fill="#FFFFFF" height="49.0679" rx="2.5" ry="2.5" style="stroke:#000000;stroke-width:1;" width="104.9738" x="476.5" y="243.9641"/><rect fill="#FFFFFF" height="10" style="stroke:#000000;stroke-width:1;" width="15" x="561.4738" y="248.9641"/><rect fill="#FFFFFF" height="2" style="stroke:#000000;stroke-width:1;" width="4" x="559.4738" y="250.9641"/><rect fill="#FFFFFF" height="2" style="stroke:#000000;stroke-width:1;" width="4" x="559.4738" y="254.9641"/><text fill="#000000" font-family="Verdana" font-size="14" lengthAdjust="spacing" textLength="64.9738" x="491.5" y="278.93">React SPA</text></g><!--entity backend--><g class="entity" data-qualified-name="Recommender Service .Render..backend" data-source-line="11" id="ent0005"><rect fill="#FFFFFF" height="49.0679" rx="2.5" ry="2.5" style="stroke:#000000;stroke-width:1;" width="118.8477" x="187.5" y="433.9641"/><rect fill="#FFFFFF" height="10" style="stroke:#000000;stroke-width:1;" width="15" x="286.3477" y="438.9641"/><rect fill="#FFFFFF" height="2" style="stroke:#000000;stroke-width:1;" width="4" x="284.3477" y="440.9641"/><rect fill="#FFFFFF" height="2" style="stroke:#000000;stroke-width:1;" width="4" x="284.3477" y="444.9641"/><text fill="#000000" font-family="Verdana" font-size="14" lengthAdjust="spacing" textLength="78.8477" x="202.5" y="468.93">FastAPI App</text></g><!--entity ai--><g class="entity" data-qualified-name="Recommender Service .Render..ai" data-source-line="12" id="ent0006"><rect fill="#FFFFFF" height="49.0679" rx="2.5" ry="2.5" style="stroke:#000000;stroke-width:1;" width="104.0358" x="352" y="561.9641"/><rect fill="#FFFFFF" height="10" style="stroke:#000000;stroke-width:1;" width="15" x="436.0358" y="566.9641"/><rect fill="#FFFFFF" height="2" style="stroke:#000000;stroke-width:1;" width="4" x="434.0358" y="568.9641"/><rect fill="#FFFFFF" height="2" style="stroke:#000000;stroke-width:1;" width="4" x="434.0358" y="572.9641"/><text fill="#000000" font-family="Verdana" font-size="14" lengthAdjust="spacing" textLength="64.0358" x="367" y="596.93">AI Service</text></g><!--entity budget--><g class="entity" data-qualified-name="Recommender Service .Render..budget" data-source-line="13" id="ent0007"><rect fill="#FFFFFF" height="49.0679" rx="2.5" ry="2.5" style="stroke:#000000;stroke-width:1;" width="124.7837" x="27.5" y="433.9641"/><rect fill="#FFFFFF" height="10" style="stroke:#000000;stroke-width:1;" width="15" x="132.2837" y="438.9641"/><rect fill="#FFFFFF" height="2" style="stroke:#000000;stroke-width:1;" width="4" x="130.2837" y="440.9641"/><rect fill="#FFFFFF" height="2" style="stroke:#000000;stroke-width:1;" width="4" x="130.2837" y="444.9641"/><text fill="#000000" font-family="Verdana" font-size="14" lengthAdjust="spacing" textLength="84.7837" x="42.5" y="468.93">Budget Filter</text></g><!--entity display--><g class="entity" data-qualified-name="Recommender Service .Render..display" data-source-line="14" id="ent0008"><rect fill="#FFFFFF" height="49.0679" rx="2.5" ry="2.5" style="stroke:#000000;stroke-width:1;" width="135.9556" x="342" y="433.9641"/><rect fill="#FFFFFF" height="10" style="stroke:#000000;stroke-width:1;" width="15" x="457.9556" y="438.9641"/><rect fill="#FFFFFF" height="2" style="stroke:#000000;stroke-width:1;" width="4" x="455.9556" y="440.9641"/><rect fill="#FFFFFF" height="2" style="stroke:#000000;stroke-width:1;" width="4" x="455.9556" y="444.9641"/><text fill="#000000" font-family="Verdana" font-size="14" lengthAdjust="spacing" textLength="95.9556" x="357" y="468.93">Display Router</text></g><!--entity history--><g class="entity" data-qualified-name="Recommender Service .Render..history" data-source-line="15" id="ent0009"><rect fill="#FFFFFF" height="49.0679" rx="2.5" ry="2.5" style="stroke:#000000;stroke-width:1;" width="135.3396" x="27.5" y="561.9641"/><rect fill="#FFFFFF" height="10" style="stroke:#000000;stroke-width:1;" width="15" x="142.8396" y="566.9641"/><rect fill="#FFFFFF" height="2" style="stroke:#000000;stroke-width:1;" width="4" x="140.8396" y="568.9641"/><rect fill="#FFFFFF" height="2" style="stroke:#000000;stroke-width:1;" width="4" x="140.8396" y="572.9641"/><text fill="#000000" font-family="Verdana" font-size="14" lengthAdjust="spacing" textLength="95.3396" x="42.5" y="596.93">History Router</text></g><!--entity userrouter--><g class="entity" data-qualified-name="Recommender Service .Render..userrouter" data-source-line="16" id="ent0010"><rect fill="#FFFFFF" height="49.0679" rx="2.5" ry="2.5" style="stroke:#000000;stroke-width:1;" width="118.8197" x="197.5" y="561.9641"/><rect fill="#FFFFFF" height="10" style="stroke:#000000;stroke-width:1;" width="15" x="296.3197" y="566.9641"/><rect fill="#FFFFFF" height="2" style="stroke:#000000;stroke-width:1;" width="4" x="294.3197" y="568.9641"/><rect fill="#FFFFFF" height="2" style="stroke:#000000;stroke-width:1;" width="4" x="294.3197" y="572.9641"/><text fill="#000000" font-family="Verdana" font-size="14" lengthAdjust="spacing" textLength="78.8197" x="212.5" y="596.93">User Router</text></g><!--entity ocr--><g class="entity" data-qualified-name="OCR Service .Render..ocr" data-source-line="20" id="ent0012"><rect fill="#FFFFFF" height="49.0679" rx="2.5" ry="2.5" style="stroke:#000000;stroke-width:1;" width="118.8477" x="687.5" y="433.9641"/><rect fill="#FFFFFF" height="10" style="stroke:#000000;stroke-width:1;" width="15" x="786.3477" y="438.9641"/><rect fill="#FFFFFF" height="2" style="stroke:#000000;stroke-width:1;" width="4" x="784.3477" y="440.9641"/><rect fill="#FFFFFF" height="2" style="stroke:#000000;stroke-width:1;" width="4" x="784.3477" y="444.9641"/><text fill="#000000" font-family="Verdana" font-size="14" lengthAdjust="spacing" textLength="78.8477" x="702.5" y="468.93">FastAPI App</text></g><!--entity tesseract--><g class="entity" data-qualified-name="OCR Service .Render..tesseract" data-source-line="21" id="ent0013"><rect fill="#FFFFFF" height="49.0679" rx="2.5" ry="2.5" style="stroke:#000000;stroke-width:1;" width="134.5276" x="685.5" y="561.9641"/><rect fill="#FFFFFF" height="10" style="stroke:#000000;stroke-width:1;" width="15" x="800.0276" y="566.9641"/><rect fill="#FFFFFF" height="2" style="stroke:#000000;stroke-width:1;" width="4" x="798.0276" y="568.9641"/><rect fill="#FFFFFF" height="2" style="stroke:#000000;stroke-width:1;" width="4" x="798.0276" y="572.9641"/><text fill="#000000" font-family="Verdana" font-size="14" lengthAdjust="spacing" textLength="94.5276" x="700.5" y="596.93">Tesseract OCR</text></g><!--entity parser--><g class="entity" data-qualified-name="OCR Service .Render..parser" data-source-line="22" id="ent0014"><rect fill="#FFFFFF" height="49.0679" rx="2.5" ry="2.5" style="stroke:#000000;stroke-width:1;" width="124.0277" x="691" y="715.9641"/><rect fill="#FFFFFF" height="10" style="stroke:#000000;stroke-width:1;" width="15" x="795.0277" y="720.9641"/><rect fill="#FFFFFF" height="2" style="stroke:#000000;stroke-width:1;" width="4" x="793.0277" y="722.9641"/><rect fill="#FFFFFF" height="2" style="stroke:#000000;stroke-width:1;" width="4" x="793.0277" y="726.9641"/><text fill="#000000" font-family="Verdana" font-size="14" lengthAdjust="spacing" textLength="84.0277" x="706" y="750.93">Menu Parser</text></g><!--entity db--><g class="entity" data-qualified-name="Infrastructure.db" data-source-line="26" id="ent0016"><path d="M459.5,726.4641 C459.5,716.4641 537.7637,716.4641 537.7637,716.4641 C537.7637,716.4641 616.0275,716.4641 616.0275,726.4641 L616.0275,754.532 C616.0275,764.532 537.7637,764.532 537.7637,764.532 C537.7637,764.532 459.5,764.532 459.5,754.532 L459.5,726.4641" fill="#FFFFFF" style="stroke:#000000;stroke-width:1;"/><path d="M459.5,726.4641 C459.5,736.4641 537.7637,736.4641 537.7637,736.4641 C537.7637,736.4641 616.0275,736.4641 616.0275,726.4641" fill="none" style="stroke:#000000;stroke-width:1;"/><text fill="#000000" font-family="Verdana" font-size="14" lengthAdjust="spacing" textLength="136.5275" x="469.5" y="755.43">PostgreSQL (Render)</text></g><!--entity openai--><g class="entity" data-qualified-name="Infrastructure.openai" data-source-line="27" id="ent0017"><rect fill="#FFFFFF" height="49.0679" rx="2.5" ry="2.5" style="stroke:#000000;stroke-width:1;" width="115.5857" x="308" y="715.9641"/><rect fill="#FFFFFF" height="10" style="stroke:#000000;stroke-width:1;" width="15" x="403.5857" y="720.9641"/><rect fill="#FFFFFF" height="2" style="stroke:#000000;stroke-width:1;" width="4" x="401.5857" y="722.9641"/><rect fill="#FFFFFF" height="2" style="stroke:#000000;stroke-width:1;" width="4" x="401.5857" y="726.9641"/><text fill="#000000" font-family="Verdana" font-size="14" lengthAdjust="spacing" textLength="75.5857" x="323" y="750.93">OpenAI API</text></g><!--entity user--><g class="entity" data-qualified-name="user" data-source-line="4" id="ent0001"><ellipse cx="528.8089" cy="69.9641" fill="#FFFFFF" rx="8" ry="8" style="stroke:#000000;stroke-width:1;"/><path d="M528.8089,77.9641 L528.8089,104.9641 M515.8089,85.9641 L541.8089,85.9641 M528.8089,104.9641 L515.8089,119.9641 M528.8089,104.9641 L541.8089,119.9641" fill="none" style="stroke:#000000;stroke-width:1;"/><text fill="#000000" font-family="Verdana" font-size="14" lengthAdjust="spacing" textLength="30.6179" x="513.5" y="136.93">User</text></g><!--link user to frontend--><g class="link" data-entity-1="ent0001" data-entity-2="ent0003" data-link-type="dependency" data-source-line="30" id="lnk18"><path d="M529,141.1841 C529,173.1141 529,212.1241 529,238.8641" fill="none" id="user-to-frontend" style="stroke:#000000;stroke-width:1;"/><polygon fill="#000000" points="529,243.8641,533,234.8641,529,238.8641,525,234.8641,529,243.8641" style="stroke:#000000;stroke-width:1;stroke-linejoin:miter;stroke-miterlimit:10;"/><text fill="#000000" font-family="Verdana" font-size="13" lengthAdjust="spacing" textLength="39.091" x="530" y="185.8611">HTTPS</text></g><!--link frontend to ocr--><g class="link" data-entity-1="ent0003" data-entity-2="ent0012" data-link-type="dependency" data-source-line="31" id="lnk19"><path d="M556.61,293.2741 C598.54,329.4341 674.0232,394.5391 715.8232,430.5791" fill="none" id="frontend-to-ocr" style="stroke:#000000;stroke-width:1;"/><polygon fill="#000000" points="719.61,433.8441,715.4057,424.9377,715.8232,430.5791,710.1818,430.9966,719.61,433.8441" style="stroke:#000000;stroke-width:1;stroke-linejoin:miter;stroke-miterlimit:10;"/><text fill="#000000" font-family="Verdana" font-size="13" lengthAdjust="spacing" textLength="122.8761" x="652" y="357.8611">POST /upload-menu</text></g><!--link frontend to backend--><g class="link" data-entity-1="ent0003" data-entity-2="ent0005" data-link-type="dependency" data-source-line="32" id="lnk20"><path d="M476.23,283.7641 C447.34,292.9641 411.69,306.6641 383,324.9641 C335.2,355.4541 293.4501,400.9507 269.0901,430.0407" fill="none" id="frontend-to-backend" style="stroke:#000000;stroke-width:1;"/><polygon fill="#000000" points="265.88,433.8741,274.7249,429.542,269.0901,430.0407,268.5915,424.4058,265.88,433.8741" style="stroke:#000000;stroke-width:1;stroke-linejoin:miter;stroke-miterlimit:10;"/><text fill="#000000" font-family="Verdana" font-size="13" lengthAdjust="spacing" textLength="200.2262" x="384" y="339.8611">POST /display/recommendations</text><text fill="#000000" font-family="Verdana" font-size="13" lengthAdjust="spacing" textLength="156.5201" x="405.853" y="357.5671">GET/POST /history/orders</text><text fill="#000000" font-family="Verdana" font-size="13" lengthAdjust="spacing" textLength="110.9421" x="428.642" y="375.2731">DELETE /users/me</text></g><!--link ocr to tesseract--><g class="link" data-entity-1="ent0012" data-entity-2="ent0013" data-link-type="dependency" data-source-line="33" id="lnk21"><path d="M748.13,483.1641 C749.2,505.6941 750.5724,534.3898 751.6424,556.8798" fill="none" id="ocr-to-tesseract" style="stroke:#000000;stroke-width:1;"/><polygon fill="#000000" points="751.88,561.8741,755.4478,552.6942,751.6424,556.8798,747.4568,553.0744,751.88,561.8741" style="stroke:#000000;stroke-width:1;stroke-linejoin:miter;stroke-miterlimit:10;"/><text fill="#000000" font-family="Verdana" font-size="13" lengthAdjust="spacing" textLength="69.472" x="751" y="527.8611">extract text</text></g><!--link tesseract to parser--><g class="link" data-entity-1="ent0013" data-entity-2="ent0014" data-link-type="dependency" data-source-line="34" id="lnk22"><path d="M753,611.2141 C753,639.7741 753,682.4041 753,710.8841" fill="none" id="tesseract-to-parser" style="stroke:#000000;stroke-width:1;"/><polygon fill="#000000" points="753,715.8841,757,706.8841,753,710.8841,749,706.8841,753,715.8841" style="stroke:#000000;stroke-width:1;stroke-linejoin:miter;stroke-miterlimit:10;"/><text fill="#000000" font-family="Verdana" font-size="13" lengthAdjust="spacing" textLength="49.855" x="754" y="657.8611">raw text</text></g><!--link backend to ai--><g class="link" data-entity-1="ent0005" data-entity-2="ent0006" data-link-type="dependency" data-source-line="35" id="lnk23"><path d="M276.53,483.1641 C304.6,505.6941 342.6807,536.2544 370.7007,558.7444" fill="none" id="backend-to-ai" style="stroke:#000000;stroke-width:1;"/><polygon fill="#000000" points="374.6,561.8741,370.085,553.1211,370.7007,558.7444,365.0774,559.36,374.6,561.8741" style="stroke:#000000;stroke-width:1;stroke-linejoin:miter;stroke-miterlimit:10;"/><text fill="#000000" font-family="Verdana" font-size="13" lengthAdjust="spacing" textLength="129.1161" x="335" y="527.8611">get recommendation</text></g><!--link backend to db--><g class="link" data-entity-1="ent0005" data-entity-2="ent0016" data-link-type="dependency" data-source-line="36" id="lnk24"><path d="M306.89,478.1141 C312.98,479.8341 319.1,481.4841 325,482.9641 C390.09,499.3241 423.69,467.4241 473,512.9641 C531.61,567.0841 538.6367,665.1741 538.6667,711.2341" fill="none" id="backend-to-db" style="stroke:#000000;stroke-width:1;"/><polygon fill="#000000" points="538.67,716.2341,542.67,707.2341,538.67,711.2341,534.67,707.2341,538.67,716.2341" style="stroke:#000000;stroke-width:1;stroke-linejoin:miter;stroke-miterlimit:10;"/><text fill="#000000" font-family="Verdana" font-size="13" lengthAdjust="spacing" textLength="103.8441" x="541.113" y="582.8611">read/write users,</text><text fill="#000000" font-family="Verdana" font-size="13" lengthAdjust="spacing" textLength="122.0701" x="532" y="600.5671">history, preferences</text></g><!--link ai to openai--><g class="link" data-entity-1="ent0006" data-entity-2="ent0017" data-link-type="dependency" data-source-line="37" id="lnk25"><path d="M398.06,611.2141 C390.92,639.7741 380.2327,682.5534 373.1127,711.0334" fill="none" id="ai-to-openai" style="stroke:#000000;stroke-width:1;"/><polygon fill="#000000" points="371.9,715.8841,377.9634,708.123,373.1127,711.0334,370.2023,706.1827,371.9,715.8841" style="stroke:#000000;stroke-width:1;stroke-linejoin:miter;stroke-miterlimit:10;"/><text fill="#000000" font-family="Verdana" font-size="13" lengthAdjust="spacing" textLength="46.0721" x="390" y="657.8611">prompt</text></g><?plantuml-src bPDDRzim38Rl-XMSJntGmFSU1cHDiWPe4S_sTkf5jfbKc2q9bBok6FRVHyaVZR3JRXBvw2NzalxWNt10iBrKMdZbUuGJTKZz6spWtWpMQDGUTafUI0v2oDORWkoRGyf0EXZv88ILxGzvGSWEPBH7tS7DTwGM-uyP_1O0xIgKbSWIK1NR-Fmyy-BFbKY9p0ySHO8AwQTg4MxAUFzNxo2TtnP7s5eR5HjM2O89j3qkGf6HAar_7hiBUZYeti-VrSH8IksKOvlUe3JZWdLJAEKUb6EF4kvb2gLSyF0Q2bPIl2PkdExB_tV1j9G2DJgM3zQpNaJy4ad19zGZ59AM0TjuJ3ewwZDnFHfRFn9ElNJIoqOwpXR6-GjXzVNngjtWLPCMEbdKF1VkUkgOhpmNhXDyWCtcqxeSS0SFTLrKOWs4B7yY9ufJLKC-sjx8RiCxCwRGl0qhE0yifsN5f5T6ksVzPL_d4pBFAZVXD-3CRl-uh_TSWzjo-O0Y50xQgu6iZhzyF7a-YFT4m2O3cI7vEkMNfa9MAiw4vKixIfYk2QzHTlahAOznKTpjivuxlGLBU4P2tQ8JB1ZTYNRoEqjikHT_0G00?></g></svg>