<svg xmlns="http://www.w3.org/2000/svg" xmlns:xlink="http://www.w3.org/1999/xlink" contentStyleType="text/css" data-diagram-type="SEQUENCE" height="985px" preserveAspectRatio="none" style="width:969px;height:985px;background:#FFFFFF;" version="1.1" viewBox="0 0 969 985" width="969px" zoomAndPan="magnify"><?plantuml 1.2026.6?><defs/><g><g class="title" data-source-line="2"><text fill="#000000" font-family="Verdana" font-size="22" font-weight="700" lengthAdjust="spacing" textLength="553.3678" x="207.1557" y="38.5181">Orderly - Menu Upload and Recommendation Flow</text></g><g class="participant-lifeline" data-entity-uid="part1" data-qualified-name="user" data-source-line="4" id="part1-lifeline"><g><title>User</title><rect fill="#000000" fill-opacity="0.00000" height="762.9444" width="8" x="24.3089" y="136.032"/><line style="stroke:#000000;stroke-width:1;stroke-dasharray:5,5;" x1="28" x2="28" y1="136.032" y2="898.9764"/></g></g><g class="participant-lifeline" data-entity-uid="part2" data-qualified-name="frontend" data-source-line="5" id="part2-lifeline"><g><title>React SPA</title><rect fill="#000000" fill-opacity="0.00000" height="762.9444" width="8" x="225.2391" y="136.032"/><line style="stroke:#000000;stroke-width:1;stroke-dasharray:5,5;" x1="228.7522" x2="228.7522" y1="136.032" y2="898.9764"/></g></g><g class="participant-lifeline" data-entity-uid="part3" data-qualified-name="ocr" data-source-line="6" id="part3-lifeline"><g><title>OCR Service</title><rect fill="#000000" fill-opacity="0.00000" height="762.9444" width="8" x="421.4243" y="136.032"/><line style="stroke:#000000;stroke-width:1;stroke-dasharray:5,5;" x1="425.0074" x2="425.0074" y1="136.032" y2="898.9764"/></g></g><g class="participant-lifeline" data-entity-uid="part4" data-qualified-name="backend" data-source-line="7" id="part4-lifeline"><g><title>Recommender Service</title><rect fill="#000000" fill-opacity="0.00000" height="762.9444" width="8" x="583.0264" y="136.032"/><line style="stroke:#000000;stroke-width:1;stroke-dasharray:5,5;" x1="586.4497" x2="586.4497" y1="136.032" y2="898.9764"/></g></g><g class="participant-lifeline" data-entity-uid="part5" data-qualified-name="openai" data-source-line="8" id="part5-lifeline"><g><title>OpenAI API</title><rect fill="#000000" fill-opacity="0.00000" height="762.9444" width="8" x="808.9426" y="136.032"/><line style="stroke:#000000;stroke-width:1;stroke-dasharray:5,5;" x1="812.1497" x2="812.1497" y1="136.032" y2="898.9764"/></g></g><g class="participant-lifeline" data-entity-uid="part6" data-qualified-name="db" data-source-line="9" id="part6-lifeline"><g><title>PostgreSQL</title><rect fill="#000000" fill-opacity="0.00000" height="762.9444" width="8" x="913.2073" y="136.032"/><line style="stroke:#000000;stroke-width:1;stroke-dasharray:5,5;" x1="916.7354" x2="916.7354" y1="136.032" y2="898.9764"/></g></g><g class="participant participant-head" data-entity-uid="part1" data-qualified-name="user" data-source-line="4" id="part1-head"><text fill="#000000" font-family="Verdana" font-size="14" lengthAdjust="spacing" textLength="30.6179" x="10" y="131.93">User</text><ellipse cx="28.3089" cy="64.9641" fill="#FFFFFF" rx="8" ry="8" style="stroke:#000000;stroke-width:1;"/><path d="M28.3089,72.9641 L28.3089,99.9641 M15.3089,80.9641 L41.3089,80.9641 M28.3089,99.9641 L15.3089,114.9641 M28.3089,99.9641 L41.3089,114.9641" fill="none" style="stroke:#000000;stroke-width:1;"/></g><g class="participant participant-tail" data-entity-uid="part1" data-qualified-name="user" data-source-line="4" id="part1-tail"><text fill="#000000" font-family="Verdana" font-size="14" lengthAdjust="spacing" textLength="30.6179" x="10" y="912.9424">User</text><ellipse cx="28.3089" cy="926.0443" fill="#FFFFFF" rx="8" ry="8" style="stroke:#000000;stroke-width:1;"/><path d="M28.3089,934.0443 L28.3089,961.0443 M15.3089,942.0443 L41.3089,942.0443 M28.3089,961.0443 L15.3089,976.0443 M28.3089,961.0443 L41.3089,976.0443" fill="none" style="stroke:#000000;stroke-width:1;"/></g><g class="participant participant-head" data-entity-uid="part2" data-qualified-name="frontend" data-source-line="5" id="part2-head"><rect fill="#FFFFFF" height="29.0679" rx="2.5" ry="2.5" style="stroke:#000000;stroke-width:1;" width="74.9738" x="191.7522" y="100.9641"/><text fill="#000000" font-family="Verdana" font-size="14" lengthAdjust="spacing" textLength="64.9738" x="196.7522" y="120.93">React SPA</text></g><g class="participant participant-tail" data-entity-uid="part2" data-qualified-name="frontend" data-source-line="5" id="part2-tail"><rect fill="#FFFFFF" height="29.0679" rx="2.5" ry="2.5" style="stroke:#000000;stroke-width:1;" width="74.9738" x="191.7522" y="902.9764"/><text fill="#000000" font-family="Verdana" font-size="14" lengthAdjust="spacing" textLength="64.9738" x="196.7522" y="922.9424">React SPA</text></g><g class="participant participant-head" data-entity-uid="part3" data-qualified-name="ocr" data-source-line="6" id="part3-head"><rect fill="#FFFFFF" height="29.0679" rx="2.5" ry="2.5" style="stroke:#000000;stroke-width:1;" width="88.8337" x="381.0074" y="100.9641"/><text fill="#000000" font-family="Verdana" font-size="14" lengthAdjust="spacing" textLength="78.8337" x="386.0074" y="120.93">OCR Service</text></g><g class="participant participant-tail" data-entity-uid="part3" data-qualified-name="ocr" data-source-line="6" id="part3-tail"><rect fill="#FFFFFF" height="29.0679" rx="2.5" ry="2.5" style="stroke:#000000;stroke-width:1;" width="88.8337" x="381.0074" y="902.9764"/><text fill="#000000" font-family="Verdana" font-size="14" lengthAdjust="spacing" textLength="78.8337" x="386.0074" y="922.9424">OCR Service</text></g><g class="participant participant-head" data-entity-uid="part4" data-qualified-name="backend" data-source-line="7" id="part4-head"><rect fill="#FFFFFF" height="29.0679" rx="2.5" ry="2.5" style="stroke:#000000;stroke-width:1;" width="157.1534" x="508.4497" y="100.9641"/><text fill="#000000" font-family="Verdana" font-size="14" lengthAdjust="spacing" textLength="147.1534" x="513.4497" y="120.93">Recommender Service</text></g><g class="participant participant-tail" data-entity-uid="part4" data-qualified-name="backend" data-source-line="7" id="part4-tail"><rect fill="#FFFFFF" height="29.0679" rx="2.5" ry="2.5" style="stroke:#000000;stroke-width:1;" width="157.1534" x="508.4497" y="902.9764"/><text fill="#000000" font-family="Verdana" font-size="14" lengthAdjust="spacing" textLength="147.1534" x="513.4497" y="922.9424">Recommender Service</text></g><g class="participant participant-head" data-entity-uid="part5" data-qualified-name="openai" data-source-line="8" id="part5-head"><rect fill="#FFFFFF" height="29.0679" rx="2.5" ry="2.5" style="stroke:#000000;stroke-width:1;" width="85.5857" x="770.1497" y="100.9641"/><text fill="#000000" font-family="Verdana" font-size="14" lengthAdjust="spacing" textLength="75.5857" x="775.1497" y="120.93">OpenAI API</text></g><g class="participant participant-tail" data-entity-uid="part5" data-qualified-name="openai" data-source-line="8" id="part5-tail"><rect fill="#FFFFFF" height="29.0679" rx="2.5" ry="2.5" style="stroke:#000000;stroke-width:1;" width="85.5857" x="770.1497" y="902.9764"/><text fill="#000000" font-family="Verdana" font-size="14" lengthAdjust="spacing" textLength="75.5857" x="775.1497" y="922.9424">OpenAI API</text></g><g class="participant participant-head" data-entity-uid="part6" data-qualified-name="db" data-source-line="9" id="part6-head"><text fill="#000000" font-family="Verdana" font-size="14" lengthAdjust="spacing" textLength="76.9437" x="875.7354" y="131.93">PostgreSQL</text><path d="M899.2073,80.9641 C899.2073,70.9641 917.2073,70.9641 917.2073,70.9641 C917.2073,70.9641 935.2073,70.9641 935.2073,80.9641 L935.2073,106.9641 C935.2073,116.9641 917.2073,116.9641 917.2073,116.9641 C917.2073,116.9641 899.2073,116.9641 899.2073,106.9641 L899.2073,80.9641" fill="#FFFFFF" style="stroke:#000000;stroke-width:1;"/><path d="M899.2073,80.9641 C899.2073,90.9641 917.2073,90.9641 917.2073,90.9641 C917.2073,90.9641 935.2073,90.9641 935.2073,80.9641" fill="none" style="stroke:#000000;stroke-width:1;"/></g><g class="participant participant-tail" data-entity-uid="part6" data-qualified-name="db" data-source-line="9" id="part6-tail"><text fill="#000000" font-family="Verdana" font-size="14" lengthAdjust="spacing" textLength="76.9437" x="875.7354" y="912.9424">PostgreSQL</text><path d="M899.2073,927.0443 C899.2073,917.0443 917.2073,917.0443 917.2073,917.0443 C917.2073,917.0443 935.2073,917.0443 935.2073,927.0443 L935.2073,953.0443 C935.2073,963.0443 917.2073,963.0443 917.2073,963.0443 C917.2073,963.0443 899.2073,963.0443 899.2073,953.0443 L899.2073,927.0443" fill="#FFFFFF" style="stroke:#000000;stroke-width:1;"/><path d="M899.2073,927.0443 C899.2073,937.0443 917.2073,937.0443 917.2073,937.0443 C917.2073,937.0443 935.2073,937.0443 935.2073,927.0443" fill="none" style="stroke:#000000;stroke-width:1;"/></g><g class="message" data-entity-1="part1" data-entity-2="part2" data-source-line="11" id="msg1"><polygon fill="#000000" points="217.2391,183.4441,227.2391,187.4441,217.2391,191.4441,221.2391,187.4441" style="stroke:#000000;stroke-width:1;stroke-linejoin:miter;stroke-miterlimit:10;"/><line style="stroke:#000000;stroke-width:1;" x1="28.3089" x2="223.2391" y1="187.4441" y2="187.4441"/><text fill="#000000" font-family="Verdana" font-size="13" lengthAdjust="spacing" textLength="97.1751" x="35.3089" y="163.929">fills preferences</text><text fill="#000000" font-family="Verdana" font-size="13" lengthAdjust="spacing" textLength="70.7461" x="35.3089" y="181.635">and budget</text></g><g class="message" data-entity-1="part1" data-entity-2="part2" data-source-line="12" id="msg2"><polygon fill="#000000" points="217.2391,215.1501,227.2391,219.1501,217.2391,223.1501,221.2391,219.1501" style="stroke:#000000;stroke-width:1;stroke-linejoin:miter;stroke-miterlimit:10;"/><line style="stroke:#000000;stroke-width:1;" x1="28.3089" x2="223.2391" y1="219.1501" y2="219.1501"/><text fill="#000000" font-family="Verdana" font-size="13" lengthAdjust="spacing" textLength="127.5301" x="35.3089" y="213.3411">uploads menu photo</text></g><g class="message" data-entity-1="part2" data-entity-2="part3" data-source-line="13" id="msg3"><polygon fill="#000000" points="413.4243,246.8561,423.4243,250.8561,413.4243,254.8561,417.4243,250.8561" style="stroke:#000000;stroke-width:1;stroke-linejoin:miter;stroke-miterlimit:10;"/><line style="stroke:#000000;stroke-width:1;" x1="229.2391" x2="419.4243" y1="250.8561" y2="250.8561"/><text fill="#000000" font-family="Verdana" font-size="13" lengthAdjust="spacing" textLength="172.1852" x="236.2391" y="245.0471">POST /upload-menu (image)</text></g><g class="message" data-entity-1="part3" data-entity-2="part3" data-source-line="14" id="msg4"><line style="stroke:#000000;stroke-width:1;" x1="425.4243" x2="467.4243" y1="282.5621" y2="282.5621"/><line style="stroke:#000000;stroke-width:1;" x1="467.4243" x2="467.4243" y1="282.5621" y2="295.5621"/><line style="stroke:#000000;stroke-width:1;" x1="426.4243" x2="467.4243" y1="295.5621" y2="295.5621"/><polygon fill="#000000" points="436.4243,291.5621,426.4243,295.5621,436.4243,299.5621,432.4243,295.5621" style="stroke:#000000;stroke-width:1;stroke-linejoin:miter;stroke-miterlimit:10;"/><text fill="#000000" font-family="Verdana" font-size="13" lengthAdjust="spacing" textLength="137.0201" x="432.4243" y="276.7531">Tesseract extracts text</text></g><g class="message" data-entity-1="part3" data-entity-2="part3" data-source-line="15" id="msg5"><line style="stroke:#000000;stroke-width:1;" x1="425.4243" x2="467.4243" y1="327.2681" y2="327.2681"/><line style="stroke:#000000;stroke-width:1;" x1="467.4243" x2="467.4243" y1="327.2681" y2="340.2681"/><line style="stroke:#000000;stroke-width:1;" x1="426.4243" x2="467.4243" y1="340.2681" y2="340.2681"/><polygon fill="#000000" points="436.4243,336.2681,426.4243,340.2681,436.4243,344.2681,432.4243,340.2681" style="stroke:#000000;stroke-width:1;stroke-linejoin:miter;stroke-miterlimit:10;"/><text fill="#000000" font-family="Verdana" font-size="13" lengthAdjust="spacing" textLength="147.6021" x="432.4243" y="321.4591">Parser structures dishes</text></g><g class="message" data-entity-1="part3" data-entity-2="part2" data-source-line="16" id="msg6"><polygon fill="#000000" points="240.2391,367.9741,230.2391,371.9741,240.2391,375.9741,236.2391,371.9741" style="stroke:#000000;stroke-width:1;stroke-linejoin:miter;stroke-miterlimit:10;"/><line style="stroke:#000000;stroke-width:1;stroke-dasharray:2,2;" x1="234.2391" x2="424.4243" y1="371.9741" y2="371.9741"/><text fill="#000000" font-family="Verdana" font-size="13" lengthAdjust="spacing" textLength="78.0651" x="246.2391" y="366.1651">{ menu: [...] }</text></g><g class="message" data-entity-1="part2" data-entity-2="part2" data-source-line="17" id="msg7"><line style="stroke:#000000;stroke-width:1;" x1="229.2391" x2="271.2391" y1="421.3862" y2="421.3862"/><line style="stroke:#000000;stroke-width:1;" x1="271.2391" x2="271.2391" y1="421.3862" y2="434.3862"/><line style="stroke:#000000;stroke-width:1;" x1="230.2391" x2="271.2391" y1="434.3862" y2="434.3862"/><polygon fill="#000000" points="240.2391,430.3862,230.2391,434.3862,240.2391,438.3862,236.2391,434.3862" style="stroke:#000000;stroke-width:1;stroke-linejoin:miter;stroke-miterlimit:10;"/><text fill="#000000" font-family="Verdana" font-size="13" lengthAdjust="spacing" textLength="72.6181" x="236.2391" y="397.8711">saves menu</text><text fill="#000000" font-family="Verdana" font-size="13" lengthAdjust="spacing" textLength="91.7281" x="236.2391" y="415.5772">to localStorage</text></g><g class="message" data-entity-1="part1" data-entity-2="part2" data-source-line="19" id="msg8"><polygon fill="#000000" points="217.2391,462.0922,227.2391,466.0922,217.2391,470.0922,221.2391,466.0922" style="stroke:#000000;stroke-width:1;stroke-linejoin:miter;stroke-miterlimit:10;"/><line style="stroke:#000000;stroke-width:1;" x1="28.3089" x2="223.2391" y1="466.0922" y2="466.0922"/><text fill="#000000" font-family="Verdana" font-size="13" lengthAdjust="spacing" textLength="176.9301" x="35.3089" y="460.2832">clicks "Get recommendation"</text></g><g class="message" data-entity-1="part2" data-entity-2="part4" data-source-line="20" id="msg9"><polygon fill="#000000" points="575.0264,511.5042,585.0264,515.5042,575.0264,519.5042,579.0264,515.5042" style="stroke:#000000;stroke-width:1;stroke-linejoin:miter;stroke-miterlimit:10;"/><line style="stroke:#000000;stroke-width:1;" x1="229.2391" x2="581.0264" y1="515.5042" y2="515.5042"/><text fill="#000000" font-family="Verdana" font-size="13" lengthAdjust="spacing" textLength="200.2262" x="236.2391" y="491.9892">POST /display/recommendations</text><text fill="#000000" font-family="Verdana" font-size="13" lengthAdjust="spacing" textLength="193.5182" x="236.2391" y="509.6952">{ message, menu, preferences }</text></g><g class="message" data-entity-1="part4" data-entity-2="part4" data-source-line="21" id="msg10"><line style="stroke:#000000;stroke-width:1;" x1="587.0264" x2="629.0264" y1="564.9163" y2="564.9163"/><line style="stroke:#000000;stroke-width:1;" x1="629.0264" x2="629.0264" y1="564.9163" y2="577.9163"/><line style="stroke:#000000;stroke-width:1;" x1="588.0264" x2="629.0264" y1="577.9163" y2="577.9163"/><polygon fill="#000000" points="598.0264,573.9163,588.0264,577.9163,598.0264,581.9163,594.0264,577.9163" style="stroke:#000000;stroke-width:1;stroke-linejoin:miter;stroke-miterlimit:10;"/><text fill="#000000" font-family="Verdana" font-size="13" lengthAdjust="spacing" textLength="94.0031" x="594.0264" y="541.4012">filter by budget</text><text fill="#000000" font-family="Verdana" font-size="13" lengthAdjust="spacing" textLength="99.7361" x="594.0264" y="559.1072">and preferences</text></g><g class="message" data-entity-1="part4" data-entity-2="part5" data-source-line="22" id="msg11"><polygon fill="#000000" points="800.9426,605.6223,810.9426,609.6223,800.9426,613.6223,804.9426,609.6223" style="stroke:#000000;stroke-width:1;stroke-linejoin:miter;stroke-miterlimit:10;"/><line style="stroke:#000000;stroke-width:1;" x1="587.0264" x2="806.9426" y1="609.6223" y2="609.6223"/><text fill="#000000" font-family="Verdana" font-size="13" lengthAdjust="spacing" textLength="201.9162" x="594.0264" y="603.8133">prompt with menu + preferences</text></g><g class="message" data-entity-1="part5" data-entity-2="part4" data-source-line="23" id="msg12"><polygon fill="#000000" points="598.0264,637.3283,588.0264,641.3283,598.0264,645.3283,594.0264,641.3283" style="stroke:#000000;stroke-width:1;stroke-linejoin:miter;stroke-miterlimit:10;"/><line style="stroke:#000000;stroke-width:1;stroke-dasharray:2,2;" x1="592.0264" x2="811.9426" y1="641.3283" y2="641.3283"/><text fill="#000000" font-family="Verdana" font-size="13" lengthAdjust="spacing" textLength="118.7941" x="604.0264" y="635.5193">recommended dish</text></g><g class="message" data-entity-1="part4" data-entity-2="part2" data-source-line="24" id="msg13"><polygon fill="#000000" points="240.2391,669.0343,230.2391,673.0343,240.2391,677.0343,236.2391,673.0343" style="stroke:#000000;stroke-width:1;stroke-linejoin:miter;stroke-miterlimit:10;"/><line style="stroke:#000000;stroke-width:1;stroke-dasharray:2,2;" x1="234.2391" x2="586.0264" y1="673.0343" y2="673.0343"/><text fill="#000000" font-family="Verdana" font-size="13" lengthAdjust="spacing" textLength="154.4532" x="246.2391" y="667.2253">{ recommendations: [...] }</text></g><g class="message" data-entity-1="part2" data-entity-2="part1" data-source-line="25" id="msg14"><polygon fill="#000000" points="39.3089,700.7403,29.3089,704.7403,39.3089,708.7403,35.3089,704.7403" style="stroke:#000000;stroke-width:1;stroke-linejoin:miter;stroke-miterlimit:10;"/><line style="stroke:#000000;stroke-width:1;stroke-dasharray:2,2;" x1="33.3089" x2="228.2391" y1="704.7403" y2="704.7403"/><text fill="#000000" font-family="Verdana" font-size="13" lengthAdjust="spacing" textLength="97.8381" x="45.3089" y="698.9313">shows dish card</text></g><g class="message" data-entity-1="part1" data-entity-2="part2" data-source-line="27" id="msg15"><polygon fill="#000000" points="217.2391,732.4463,227.2391,736.4463,217.2391,740.4463,221.2391,736.4463" style="stroke:#000000;stroke-width:1;stroke-linejoin:miter;stroke-miterlimit:10;"/><line style="stroke:#000000;stroke-width:1;" x1="28.3089" x2="223.2391" y1="736.4463" y2="736.4463"/><text fill="#000000" font-family="Verdana" font-size="13" lengthAdjust="spacing" textLength="123.3831" x="35.3089" y="730.6373">clicks "I'll order this"</text></g><g class="message" data-entity-1="part2" data-entity-2="part4" data-source-line="28" id="msg16"><polygon fill="#000000" points="575.0264,781.8584,585.0264,785.8584,575.0264,789.8584,579.0264,785.8584" style="stroke:#000000;stroke-width:1;stroke-linejoin:miter;stroke-miterlimit:10;"/><line style="stroke:#000000;stroke-width:1;" x1="229.2391" x2="581.0264" y1="785.8584" y2="785.8584"/><text fill="#000000" font-family="Verdana" font-size="13" lengthAdjust="spacing" textLength="127.7641" x="236.2391" y="762.3433">POST /history/orders</text><text fill="#000000" font-family="Verdana" font-size="13" lengthAdjust="spacing" textLength="111.3581" x="236.2391" y="780.0494">(X-User-Id header)</text></g><g class="message" data-entity-1="part4" data-entity-2="part6" data-source-line="29" id="msg17"><polygon fill="#000000" points="905.2073,813.5644,915.2073,817.5644,905.2073,821.5644,909.2073,817.5644" style="stroke:#000000;stroke-width:1;stroke-linejoin:miter;stroke-miterlimit:10;"/><line style="stroke:#000000;stroke-width:1;" x1="587.0264" x2="911.2073" y1="817.5644" y2="817.5644"/><text fill="#000000" font-family="Verdana" font-size="13" lengthAdjust="spacing" textLength="129.2201" x="594.0264" y="811.7554">INSERT order_history</text></g><g class="message" data-entity-1="part6" data-entity-2="part4" data-source-line="30" id="msg18"><polygon fill="#000000" points="598.0264,845.2704,588.0264,849.2704,598.0264,853.2704,594.0264,849.2704" style="stroke:#000000;stroke-width:1;stroke-linejoin:miter;stroke-miterlimit:10;"/><line style="stroke:#000000;stroke-width:1;stroke-dasharray:2,2;" x1="592.0264" x2="916.2073" y1="849.2704" y2="849.2704"/><text fill="#000000" font-family="Verdana" font-size="13" lengthAdjust="spacing" textLength="14.807" x="604.0264" y="843.4614">ok</text></g><g class="message" data-entity-1="part4" data-entity-2="part2" data-source-line="31" id="msg19"><polygon fill="#000000" points="240.2391,876.9764,230.2391,880.9764,240.2391,884.9764,236.2391,880.9764" style="stroke:#000000;stroke-width:1;stroke-linejoin:miter;stroke-miterlimit:10;"/><line style="stroke:#000000;stroke-width:1;stroke-dasharray:2,2;" x1="234.2391" x2="586.0264" y1="880.9764" y2="880.9764"/><text fill="#000000" font-family="Verdana" font-size="13" lengthAdjust="spacing" textLength="106.7301" x="246.2391" y="875.1674">{ status: "saved" }</text></g><?plantuml-src VLF1ZjCm4BtdAuPSs1MRzhu7f0e1YWIqD5q9QHSXnvusLXqxiYTRAiI_Cqv2gNVBdk9atfjvyvxpYXfi4JeZjCr8aq5OUeNU7A60psXxkEkC4mg4LR16wTeMhHAadOKFnXsoJ4Xo7lAxW3u74Q3dGzO9JrhgJbY2V8sCWMgr6EfRxonnZnIpVBU62lsZbZYWd7pMP9gDFW7MGkwVT-lGBafOhCgn6RyAdR5iKOk0aAzSe9t7wkkdeQxgB8koeNXxaWUtiDN61EWyRj6ZbHWUR7IXxjKEwHAX7wmAq4RVkiQHoqvLHl9E35ejgmtCHsWn8AzqAtPudSNw2RR1m0EYSVYJuZC0yIa5hOIFAWBvNbBlaLVHeS4meb9nlmPPjt0_cys-m-z4sHaiY4SSDtYmvC0uAKp52RF2YoP9e-K-GFuH2NnoF_9an9JJoG0MofVkE4yvR77K6GAFknbKt9m7mBB_zabQSbB4okhZ5CuOr1dnd3RU1cPrthKTmK5JCqRs9g5Ck2APT9ABQl3wN-EdRZzPx9BnJ1aSPTSRTnZ30ocyUj7fyhKnuE9F2jJeyBBD3E3mZlC1p-vUVIlYdrgK2XeK_Etwt1fLCx7yKhrVRyO9FoP-nfNK2BV__-g11FMySHulayfvvpy0?></g></svg>